# AST/ASF file generated using VICON BodyLanguage
# -----------------------------------------------
:version 1.10
:name VICON
:units
  mass 1.0
  length 0.45
  angle deg
:documentation
   .ast/.asf automatically generated from VICON data using
   VICON BodyBuilder and BodyLanguage model FoxedUp or BRILLIANT.MOD
:root
   order TX TY TZ RX RY RZ
   axis XYZ
   position 0 0 0  
   orientation 0 0 0 
:bonedata
  begin
     id 1 
     name lhipjoint
     direction 0.693937 -0.600361 0.397515 
     length 2.37164 
     axis 0 0 0  XYZ
  end
  begin
     id 2 
     name lfemur
     direction 0.34202 -0.939693 0  
     length 6.18497  
     axis 0 0 20  XYZ
    dof rx ry rz
    limits (-160.0 20.0)
           (-70.0 70.0)
           (-60.0 70.0)
  end
  begin
     id 3 
     name ltibia
     direction 0.34202 -0.939693 0   
     length 6.91601   
     axis 0 0 20   XYZ
    dof rx
    limits (-10.0 170.0)
  end
  begin
     id 4 
     name lfoot
     direction 0.0978718 -0.2689 0.958182   
     length 1.81453   
     axis -90 7.62852e-016 20   XYZ
    dof rx rz
    limits (-45.0 90.0)
           (-70.0 20.0)
  end
  begin
     id 5 
     name ltoes
     direction 1.53569e-011 -4.21951e-011 1   
     length 0.912052   
     axis -90 7.62852e-016 20   XYZ
    dof rx
    limits (-90.0 20.0)
  end
  begin
     id 6 
     name rhipjoint
     direction -0.643996 -0.637876 0.422354   
     length 2.23216  
     axis 0 0 0  XYZ 
  end
  begin
     id 7 
     name rfemur
     direction -0.34202 -0.939693 0   
     length 6.15404   
     axis 0 0 -20   XYZ
    dof rx ry rz
    limits (-160.0 20.0)
           (-70.0 70.0)
           (-70.0 60.0)
  end
  begin
     id 8 
     name rtibia
     direction -0.34202 -0.939693 0   
     length 6.86744   
     axis 0 0 -20   XYZ
    dof rx
    limits (-10.0 170.0)
 end
 begin
     id 9 
     name rfoot
     direction -0.118701 -0.326127 0.937844   
     length 1.9243  
     axis -90 -7.62852e-016 -20   XYZ
    dof rx rz
    limits (-45.0 90.0)
           (-20.0 70.0)
  end
  begin
     id 10 
     name rtoes
     direction -1.5356e-011 -4.2181e-011 1   
     length 0.958865   
     axis -90 -7.62852e-016 -20   XYZ
    dof rx
    limits (-90.0 20.0)
  end
  begin
     id 11 
     name lowerback
     direction 0.0310826 0.968686 -0.246334   
     length 2.00021   
     axis 0 0 0   XYZ
    dof rx ry rz
    limits (-20.0 45.0)
           (-30.0 30.0)
           (-30.0 30.0)
  end
  begin
     id 12 
     name upperback
     direction -0.0152834 0.999474 -0.0286152   
     length 2.03728   
     axis 0 0 0   XYZ
    dof rx ry rz
    limits (-20.0 45.0)
           (-30.0 30.0)
           (-30.0 30.0)
  end
  begin
     id 13 
     name thorax
     direction -0.0323701 0.996236 0.0804149   
     length 2.16   
     axis 0 0 0   XYZ
    dof rx ry rz
    limits (-20.0 45.0)
           (-30.0 30.0)
           (-30.0 30.0)
  end
  begin
     id 14 
     name lowerneck
     direction 0.0307935 0.982251 0.185027   
     length 1.43558   
     axis 0 0 0   XYZ
    dof rx ry rz
    limits (-20.0 45.0)
           (-30.0 30.0)
           (-30.0 30.0)
  end
  begin
     id 15 
     name upperneck
     direction -0.0927153 0.994775 0.0427454   
     length 1.44603   
     axis 0 0 0   XYZ
    dof rx ry rz
    limits (-20.0 45.0)
           (-30.0 30.0)
           (-30.0 30.0)
  end
  begin
     id 16
     name head
     direction -0.0341265 0.999406 -0.00472033  
     length 1.45931  
     axis 0 0 0   XYZ
    dof rx ry rz
    limits (-20.0 45.0)
           (-30.0 30.0)
           (-30.0 30.0)
  end
  begin
     id 17 
     name lclavicle
     direction 0.820755 0.555306 -0.134151  
     length 2.66075  
     axis 0 0 0   XYZ
    dof ry rz
    limits (-20.0 10.0)
           (0.0 20.0)
  end
  begin
     id 18 
     name lhumerus
     direction 1 -4.48971e-011 5.24853e-027   
     length 5.0546   
     axis -180 -30 -90   XYZ
    dof rx ry rz
    limits (-60.0 90.0)
           (-90.0 90.0)
           (-90.0 90.0)
  end
  begin
     id 19
     name lradius
     direction 1 -4.48971e-011 2.76575e-028   
     length 3.39013   
     axis -180 -30 -90   XYZ
    dof rx
    limits (-10.0 170.0)
  end
  begin
     id 20
     name lwrist
     direction 1 -4.48939e-011 -2.27826e-027   
     length 1.69507   
     axis 2.17013e-015 90 90   XYZ
    dof ry
    limits (-180.0 0.0)
 end
  begin
     id 21 
     name lhand
     direction 1 -4.49009e-011 -4.55652e-027   
     length 0.572425   
     axis 2.90745e-015 90 90   XYZ
    dof rx rz
    limits (-90.0 90.0)
           (-45.0 45.0)
  end
  begin
     id 22 
     name lfingers
     direction 1 -4.48955e-011 -9.11303e-027   
     length 0.461504   
     axis 5.81489e-015 90 90   XYZ
    dof rx
    limits (0.0 90.0)
  end
  begin
     id 23
     name lthumb
     direction 0.707107 -6.34929e-011 0.707107   
     length 0.66263   
     axis -90 45 2.85299e-015   XYZ
    dof rx rz
    limits (-45.0 45.0)
           (-45.0 45.0)
  end
  begin
     id 24 
     name rclavicle
     direction -0.754477 0.632921 -0.173712   
     length 2.73081  
     axis 0 0 0   XYZ 
    dof ry rz
    limits (-10.0 20.0)
           (-20.0 0.0)
  end
  begin
     id 25 
     name rhumerus
     direction -1 -4.48969e-011 5.1496e-027  
     length 5.0701   
     axis -180 30 90   XYZ
    dof rx ry rz
    limits (-90.0 60.0)
           (-90.0 90.0)
           (-90.0 90.0)
  end
  begin
     id 26 
     name rradius
     direction -1 -4.48967e-011 -7.15624e-028   
     length 3.14957   
     axis -180 30 90   XYZ
    dof rx
    limits (-10.0 170.0)
  end
  begin
     id 27 
     name rwrist
     direction -1 -4.48938e-011 -2.27826e-027   
     length 1.57479   
     axis 2.17013e-015 -90 -90   XYZ
    dof ry
    limits (-180.0 0.0)
  end
  begin
     id 28
     name rhand
     direction -1 -4.49008e-011 -4.55652e-027   
     length 0.718191   
     axis 2.90745e-015 -90 -90   XYZ
    dof rx rz
    limits (-90.0 90.0)
           (-45.0 45.0)
  end
  begin
     id 29
     name rfingers
     direction -1 -4.48953e-011 -9.11303e-027   
     length 0.579024   
     axis 5.81489e-015 -90 -90   XYZ
    dof rx
    limits (0.0 90.0)
  end
  begin
     id 30
     name rthumb
     direction -0.707107 -6.34937e-011 0.707107   
     length 0.831366   
     axis -90 -45 -2.85299e-015   XYZ
    dof rx rz
    limits (-45.0 45.0)
           (-45.0 45.0)
  end
:hierarchy
  begin
    root lhipjoint rhipjoint lowerback
    lhipjoint lfemur
    lfemur ltibia
    ltibia lfoot
    lfoot ltoes
    rhipjoint rfemur
    rfemur rtibia
    rtibia rfoot
    rfoot rtoes
    lowerback upperback
    upperback thorax
    thorax lowerneck lclavicle rclavicle
    lowerneck upperneck
    upperneck head
    lclavicle lhumerus
    lhumerus lradius
    lradius lwrist
    lwrist lhand lthumb
    lhand lfingers
    rclavicle rhumerus
    rhumerus rradius
    rradius rwrist
    rwrist rhand rthumb
    rhand rfingers
  end

#!OML:ASF H:\Male1\Project 1\Capture day 1\Session 1\Male1.ASF
:FULLY-SPECIFIED
:DEGREES
104
root 6.39737 15.7042 -1.96387 -1.41119 -62.6069 2.39394
lowerback 20.5505 1.65555 3.50481
upperback 6.93332 2.33066 -3.31852
thorax -3.64577 1.07667 -6.09763
lowerneck -9.45902 3.12959 7.98996
upperneck 4.04906 3.45923 -4.09101
head 3.27545 1.69933 -2.6007
rclavicle -3.77691e-015 7.15625e-015
rhumerus 54.5302 -3.39899 -32.8915
rradius 58.7667
rwrist -2.27774
rhand -9.95873 -0.781908
rfingers 7.12502
rthumb 16.0234 -30.1393
lclavicle -3.77691e-015 7.15625e-015
lhumerus 3.49788 -9.27653 57.4685
lradius 90.2617
lwrist 11.1173
lhand -36.1008 9.11161
lfingers 7.12502
lthumb -9.20705 38.8906
rfemur 14.8233 -2.07906 27.0844
rtibia 8.79861
rfoot -17.1658 -30.5982
rtoes -19.6771
lfemur -76.2604 4.07367 -26.5347
ltibia 96.8445
lfoot -24.0278 5.3558
ltoes -6.73729
105
root 6.30707 15.8048 -1.8775 -1.6662 -62.3603 3.69238
lowerback 20.5338 1.66012 2.79733
upperback 6.83758 2.17833 -3.65146
thorax -3.77848 0.99366 -6.02023
lowerneck -9.20357 3.1799 7.91893
upperneck 3.56971 3.52682 -3.76174
head 3.05185 1.73872 -2.46763
rclavicle -3.12092e-014 7.95139e-015
rhumerus 52.8213 -3.80286 -32.5666
rradius 61.048
rwrist -2.87763
rhand -6.52963 -2.82927
rfingers 7.12502
rthumb 19.3232 -31.8892
lclavicle -3.12092e-014 7.95139e-015
lhumerus 6.44376 -8.4988 55.8267
lradius 91.5686
lwrist 11.9225
lhand -36.9734 9.76415
lfingers 7.12502
lthumb -10.049 39.5042
rfemur 15.1899 -1.92731 26.2177
rtibia 6.94339
rfoot -15.1657 -30.8561
rtoes -18.6248
lfemur -75.8443 3.88837 -27.3711
ltibia 96.012
lfoot -24.474 4.88425
ltoes -6.4223
106
root 6.21567 15.9215 -1.78293 -2.05132 -62.2052 5.18329
lowerback 20.473 1.65286 2.00722
upperback 6.7302 1.98918 -4.03079
thorax -3.90421 0.89289 -5.9352
lowerneck -8.90173 3.27452 7.93791
upperneck 3.17988 3.64738 -3.38653
head 2.85656 1.80784 -2.33523
rclavicle -1.59028e-015 -4.6118e-014
rhumerus 50.8191 -4.00483 -32.4328
rradius 63.712
rwrist -3.01684
rhand -3.74623 -4.36959
rfingers 7.12502
rthumb 21.9976 -33.1387
lclavicle -1.59028e-015 -4.6118e-014
lhumerus 9.1365 -7.61071 54.2434
lradius 92.7766
lwrist 12.8344
lhand -37.6921 10.4753
lfingers 7.12502
lthumb -10.7423 40.1806
rfemur 15.8177 -1.67122 25.1901
rtibia 4.47507
rfoot -12.647 -31.3486
rtoes -17.2848
lfemur -75.2355 3.64907 -28.2635
ltibia 94.9548
lfoot -25.0196 4.47388
ltoes -5.87921
107
root 6.12316 16.0539 -1.68046 -2.47646 -62.1793 6.7259
lowerback 20.3922 1.64226 1.18708
upperback 6.61028 1.78675 -4.42578
thorax -4.0316 0.785843 -5.84608
lowerneck -8.6015 3.40264 8.02967
upperneck 2.96504 3.80681 -2.98286
head 2.72603 1.89965 -2.20698
rclavicle 1.61016e-014 -1.86858e-014
rhumerus 48.5868 -4.03063 -32.5628
rradius 66.7172
rwrist -2.5996
rhand -1.90481 -5.20115
rfingers 7.12502
rthumb 23.7647 -33.7516
lclavicle 1.61016e-014 -1.86858e-014
lhumerus 11.5361 -6.65418 52.7352
lradius 93.9076
lwrist 13.8298
lhand -38.2492 11.2096
lfingers 7.12502
lthumb -11.2796 40.8863
rfemur 17.4649 -1.26101 24.0631
rtibia 9.54166e-015
rfoot -8.91737 -32.3314
rtoes -15.4659
lfemur -74.4321 3.40315 -29.1328
ltibia 93.6949
lfoot -25.6413 4.16786
ltoes -5.31649
108
root 6.02934 16.2006 -1.57096 -2.83217 -62.3213 8.15283
lowerback 20.308 1.63639 0.403504
upperback 6.4826 1.59696 -4.79965
thorax -4.16005 0.685579 -5.75807
lowerneck -8.36065 3.55795 8.16966
upperneck 3.0044 3.99466 -2.57474
head 2.69642 2.0096 -2.08596
rclavicle -2.62396e-014 4.57205e-014
rhumerus 46.2068 -3.90359 -32.9927
rradius 70.0203
rwrist -1.6668
rhand -0.995499 -5.56456
rfingers 7.12502
rthumb 24.6365 -33.9989
lclavicle -2.62396e-014 4.57205e-014
lhumerus 13.6301 -5.66089 51.3277
lradius 94.9614
lwrist 14.8756
lhand -38.6218 11.9347
lfingers 7.12502
lthumb -11.6389 41.5915
rfemur 16.732 -0.734479 23.0057
rtibia 3.18055e-015
rfoot -7.53033 -32.9137
rtoes -12.9127
lfemur -73.4499 3.2168 -29.9018
ltibia 92.2695
lfoot -26.2999 4.01953
ltoes -4.90245
109
root 5.93453 16.3588 -1.45534 -3.00745 -62.6521 9.30626
lowerback 20.2217 1.64376 -0.283278
upperback 6.35258 1.44664 -5.10687
thorax -4.28208 0.60577 -5.66248
lowerneck -8.20392 3.73001 8.33985
upperneck 3.3345 4.19663 -2.21598
head 2.78494 2.13074 -1.9862
rclavicle 7.23576e-014 -3.18055e-015
rhumerus 43.763 -3.63256 -33.6682
rradius 73.5817
rwrist -0.424142
rhand -0.86841 -5.69334
rfingers 7.12502
rthumb 24.7583 -34.111
lclavicle 7.23576e-014 -3.18055e-015
lhumerus 15.4175 -4.66032 50.0614
lradius 95.9313
lwrist 15.9286
lhand -38.8125 12.6576
lfingers 7.12502
lthumb -11.8228 42.3039
rfemur 15.9982 -0.043856 22.0584
rtibia 1.90833e-014
rfoot -6.16416 -33.6894
rtoes -9.5994
lfemur -72.3289 3.13315 -30.5104
ltibia 90.732
lfoot -26.9627 4.06255
ltoes -4.57923
110
root 5.83901 16.5256 -1.33555 -2.92399 -63.1488 10.0703
lowerback 20.1496 1.65977 -0.823818
upperback 6.22868 1.3425 -5.3138
thorax -4.3972 0.549912 -5.55308
lowerneck -8.17199 3.90744 8.50946
upperneck 3.97131 4.39606 -1.94652
head 3.00565 2.25468 -1.91452
rclavicle 1.82882e-014 -9.54166e-015
rhumerus 41.3666 -3.22182 -34.5041
rradius 77.2526
rwrist 0.907098
rhand -1.26906 -5.78727
rfingers 7.12502
rthumb 24.3743 -34.2571
lclavicle 1.82882e-014 -9.54166e-015
lhumerus 16.9218 -3.6771 48.96
lradius 96.8057
lwrist 16.9694
lhand -38.846 13.3674
lfingers 7.12502
lthumb -11.8552 43.0118
rfemur 15.279 0.785689 21.2696
rtibia 1.59028e-014
rfoot -4.93611 -34.6411
rtoes -5.50522
lfemur -71.0997 3.15536 -30.9276
ltibia 89.1219
lfoot -27.6052 4.30799
ltoes -4.21511
111
root 5.74259 16.6975 -1.21307 -2.53241 -63.7803 10.3738
lowerback 20.0949 1.6864 -1.17813
upperback 6.12942 1.29717 -5.40542
thorax -4.48676 0.524427 -5.43888
lowerneck -8.33063 4.07327 8.63288
upperneck 4.90726 4.56687 -1.76309
head 3.36906 2.36793 -1.86116
rclavicle -3.97569e-015 -2.54444e-014
rhumerus 39.104 -2.69701 -35.3924
rradius 80.8374
rwrist 2.17023
rhand -1.9114 -5.96547
rfingers 7.12502
rthumb 23.7584 -34.5167
lclavicle -3.97569e-015 -2.54444e-014
lhumerus 18.223 -2.74487 48.041
lradius 97.5598
lwrist 17.9843
lhand -38.7161 14.1227
lfingers 7.12502
lthumb -11.7298 43.7742
rfemur 14.5955 1.72325 20.6701
rtibia 1.27222e-014
rfoot -3.92012 -35.731
rtoes -0.923368
lfemur -69.7841 3.27693 -31.1419
ltibia 87.4701
lfoot -28.2274 4.71726
ltoes -3.59122
112
root 5.64592 16.8711 -1.08907 -1.81331 -64.473 10.1945
lowerback 20.0505 1.71362 -1.34908
upperback 6.0672 1.30041 -5.36063
thorax -4.53632 0.524291 -5.29192
lowerneck -8.6957 4.23003 8.6889
upperneck 6.10662 4.71575 -1.68425
head 3.87233 2.47093 -1.82746
rclavicle 3.45885e-014 1.59028e-015
rhumerus 37.0522 -2.05584 -36.2226
rradius 84.1286
rwrist 3.21518
rhand -2.54199 -6.12259
rfingers 7.12502
rthumb 23.1535 -34.7511
lclavicle 3.45885e-014 1.59028e-015
lhumerus 19.3359 -1.87288 47.3173
lradius 98.2174
lwrist 18.9878
lhand -38.4963 14.9324
lfingers 7.12502
lthumb -11.5179 44.5959
rfemur 13.9659 2.70045 20.2652
rtibia 1.27222e-014
rfoot -3.1397 -36.8828
rtoes 3.77468
lfemur -68.392 3.44074 -31.1649
ltibia 85.7843
lfoot -28.8359 5.24668
ltoes -2.60129
113
root 5.54937 17.0437 -0.965288 -0.759034 -65.159 9.53998
lowerback 19.9974 1.73838 -1.37968
upperback 6.05653 1.34303 -5.15916
thorax -4.52349 0.544955 -5.06203
lowerneck -9.22751 4.37238 8.69383
upperneck 7.8429 4.86544 -1.91655
head 4.11351 2.55184 -1.67254
rclavicle -2.50469e-014 7.15625e-015
rhumerus 35.2792 -1.32864 -36.8933
rradius 86.9442
rwrist 4.11579
rhand -3.14168 -6.13911
rfingers 7.12502
rthumb 22.578 -34.8388
lclavicle -2.50469e-014 7.15625e-015
lhumerus 20.3442 -1.06965 46.8378
lradius 98.7431
lwrist 19.9762
lhand -38.2602 15.7738
lfingers 7.12502
lthumb -11.2903 45.4499
rfemur 13.3926 3.65622 20.0547
rtibia 3.18055e-014
rfoot -2.49925 -37.9954
rtoes 8.30884
lfemur -66.9366 3.60698 -31.0142
ltibia 84.0602
lfoot -29.4293 5.8838
ltoes -1.44753
114
root 5.45428 17.215 -0.841714 0.437311 -65.7741 8.66211
lowerback 19.9362 1.74042 -1.33774
upperback 6.07451 1.37917 -4.86419
thorax -4.4772 0.563177 -4.76985
lowerneck -9.972 4.50651 8.58014
upperneck 9.49422 4.99034 -2.00889
head 4.75212 2.62848 -1.64579
rclavicle -6.36111e-015 -6.36111e-014
rhumerus 33.7616 -0.522537 -37.4683
rradius 89.2395
rwrist 4.83201
rhand -3.68017 -5.96388
rfingers 7.12502
rthumb 22.0611 -34.7255
lclavicle -6.36111e-015 -6.36111e-014
lhumerus 21.2367 -0.341753 46.5195
lradius 99.1879
lwrist 21.0004
lhand -38.0278 16.6339
lfingers 7.12502
lthumb -11.0661 46.3222
rfemur 12.854 4.53663 19.9277
rtibia 6.36111e-015
rfoot -1.86691 -38.9241
rtoes 11.8064
lfemur -65.4144 3.71956 -30.8127
ltibia 82.2708
lfoot -30.0073 6.60733
ltoes -0.257872
